<svg width="20" height="20" viewBox="0 0 20 20" fill="none" xmlns="http://www.w3.org/2000/svg">
  <g clip-path="url(#clip0_3840_207174)">
    <path
      fill-rule="evenodd"
      clip-rule="evenodd"
      d="M13.9151 13.9976C11.6207 16.4166 9.05365 18.0998 6.78238 18.8836C5.39627 19.3619 4.18454 19.4879 3.2136 19.2985C5.51064 18.8394 9.15402 16.3662 12.5949 12.7386C16.0253 9.12204 18.2994 5.36502 18.6473 3.04521C18.8836 4.0026 18.8203 5.21429 18.4178 6.61682C17.755 8.92628 16.2096 11.5786 13.9151 13.9976ZM16.6262 0.813953C14.3508 1.12825 10.559 3.65056 6.98549 7.41791C3.4016 11.1963 1.07988 15.1279 0.89802 17.4138C0.506619 16.3977 0.514292 15.0207 0.984087 13.3837C1.64687 11.0742 3.19223 8.42192 5.48673 6.00293C7.78123 3.58393 10.3482 1.90071 12.6195 1.11694C14.2226 0.56375 15.5924 0.481721 16.6262 0.813953ZM14.3635 14.4228C9.66632 19.3748 3.77105 21.4092 1.19601 18.9666C-1.37903 16.5241 0.341269 10.5297 5.03841 5.57768C9.73556 0.625676 15.6308 -1.40867 18.2059 1.03385C20.7809 3.47636 19.0606 9.4708 14.3635 14.4228ZM12.1466 12.3134C9.84479 14.74 7.46754 16.6247 5.49998 17.7168C4.51287 18.2647 3.66048 18.5954 2.99227 18.7113C2.31005 18.8297 1.94734 18.7067 1.76757 18.5362C1.58779 18.3657 1.44583 18.01 1.52803 17.3224C1.60854 16.649 1.89374 15.7804 2.38877 14.7657C3.3755 12.7433 5.13202 10.2698 7.43381 7.84316C9.73559 5.41648 12.1128 3.53184 14.0804 2.43972C15.0675 1.89181 15.9199 1.56116 16.5881 1.44522C17.2703 1.32684 17.633 1.44983 17.8128 1.62034C17.9926 1.79086 18.1345 2.14658 18.0523 2.8341C17.9718 3.50749 17.6866 4.37615 17.1916 5.39081C16.2049 7.41328 14.4484 9.8867 12.1466 12.3134Z"
      fill="white"
    />
    <path
      d="M9.8375 8C10.0825 8 10.3075 8.0425 10.5125 8.1275C10.7175 8.2075 10.895 8.3225 11.045 8.4725C11.195 8.6175 11.3125 8.7875 11.3975 8.9825C11.4825 9.1775 11.525 9.3875 11.525 9.6125C11.525 9.8375 11.4825 10.0475 11.3975 10.2425C11.3125 10.4375 11.195 10.61 11.045 10.76C10.895 10.905 10.7175 11.02 10.5125 11.105C10.3075 11.185 10.0825 11.225 9.8375 11.225H9.0875V12.725H8V8H9.8375ZM9.8375 10.175C10.0075 10.175 10.15 10.12 10.265 10.01C10.38 9.895 10.4375 9.7625 10.4375 9.6125C10.4375 9.4625 10.38 9.3325 10.265 9.2225C10.15 9.1075 10.0075 9.05 9.8375 9.05H9.0875V10.175H9.8375Z"
      fill="white"
    />
  </g>
  <defs>
    <clipPath id="clip0_3840_207174">
      <rect width="20" height="20" fill="white" />
    </clipPath>
  </defs>
</svg>
